<?xml version="1.0" standalone="no"?>
<!DOCTYPE svg PUBLIC "-//W3C//DTD SVG 20010904//EN"
 "http://www.w3.org/TR/2001/REC-SVG-20010904/DTD/svg10.dtd">
<svg version="1.0" xmlns="http://www.w3.org/2000/svg"
 width="700.000000pt" height="700.000000pt" viewBox="0 0 700.000000 700.000000"
 preserveAspectRatio="xMidYMid meet">
<metadata>
Created by potrace 1.14, written by Peter Selinger 2001-2017
</metadata>
<g transform="translate(0.000000,700.000000) scale(0.100000,-0.100000)"
fill="#000000" stroke="none">
<path d="M3605 6344 c-27 -3 -120 -13 -206 -24 -827 -103 -1600 -433 -2222
-946 -141 -117 -392 -371 -502 -509 -322 -402 -534 -857 -616 -1320 -23 -134
-40 -551 -22 -544 6 2 313 301 684 664 719 705 846 828 1089 1054 484 450 859
713 1159 813 86 29 108 32 216 32 117 1 122 0 188 -33 80 -38 160 -114 199
-187 104 -193 66 -466 -117 -839 -118 -240 -278 -489 -579 -900 -206 -281
-213 -290 -195 -280 79 49 845 645 1779 1385 294 233 562 444 595 468 84 62
222 128 311 148 110 24 241 16 316 -18 151 -70 238 -246 238 -482 0 -268 -131
-497 -531 -927 -90 -96 -189 -204 -220 -240 -216 -246 -359 -553 -359 -768 0
-96 13 -142 52 -187 49 -55 82 -68 173 -68 150 1 303 68 706 310 238 142 741
476 1038 688 l194 139 -6 166 c-3 91 -13 209 -22 261 -109 648 -479 1204
-1060 1595 -405 272 -897 451 -1449 526 -120 17 -215 21 -466 24 -173 1 -337
1 -365 -1z"/>
<path d="M1715 3709 c-226 -221 -649 -640 -940 -930 -292 -291 -536 -529 -543
-529 -6 0 -12 -3 -12 -6 0 -19 124 -242 189 -341 449 -676 1237 -1110 2241
-1235 166 -21 728 -17 910 5 885 110 1688 456 2315 998 130 112 348 338 450
464 119 148 271 381 352 540 64 126 169 373 161 380 -2 2 -131 -92 -288 -207
-903 -665 -1441 -1018 -1925 -1261 -241 -121 -345 -152 -520 -152 -126 0 -132
1 -197 32 -164 77 -251 237 -280 510 -28 269 48 696 188 1051 93 236 243 502
351 622 25 28 42 50 38 50 -23 0 -536 -469 -1120 -1024 -791 -753 -949 -897
-1063 -973 -106 -71 -202 -111 -300 -125 -377 -55 -586 377 -426 884 32 100
117 272 499 1003 325 622 337 645 333 645 -2 0 -188 -181 -413 -401z"/>
</g>
</svg>
