<?xml version="1.0" encoding="UTF-8"?>
<svg width="517px" height="80px" viewBox="0 0 517 80" version="1.1" xmlns="http://www.w3.org/2000/svg" xmlns:xlink="http://www.w3.org/1999/xlink">
    <title>main horizontal</title>
    <g id="Page-1" stroke="none" stroke-width="1" fill="none" fill-rule="evenodd">
        <g id="Artboard" transform="translate(-1050.000000, -371.000000)">
            <g id="main-horizontal" transform="translate(1050.000000, 371.000000)">
                <g id="emblem" fill="#009CE7">
                    <path d="M29.6327301,31.5151515 C29.6327301,31.5151515 27.2114589,36.1255879 24.6349094,41.0545268 L24.2660192,41.7603641 C21.6798196,46.7099043 19.0462462,51.7735692 18.631292,52.6594249 C13.8915395,62.7755351 20.2323869,72.5493701 29.9643971,63.8270714 C39.9844339,54.846841 49.4225311,45.0015285 59.7362779,36.3705168 C50.0645523,44.4640176 42.9099639,78.0419063 64.3802244,67.021912 C75.2755048,61.4297156 85.2594114,53.8006144 95.3535354,46.4188254 C90.6194663,60.5211343 77.0992672,72.9282009 59.0171248,77.8558606 C34.9369659,84.4183131 11.1842114,75.4248083 3.23232323,57.5946408 C3.60884847,57.2049862 3.9853737,56.8157401 4.36169596,56.4262898 C4.67829989,56.098741 5.1426105,55.6283708 5.72547607,55.0435402 L6.13129692,54.6370072 C8.315478,52.4521913 11.8293606,48.9841675 15.4816444,45.3919246 L16.1899463,44.6954119 L16.1899463,44.6954119 L17.2546812,43.648911 C23.5222527,37.4903742 29.6327301,31.5151515 29.6327301,31.5151515 Z M38.2775854,2.13870498 C64.4491559,-4.95716284 90.2362903,6.18056474 95.8740079,27.0173297 C96.6762562,29.9821072 97.0258916,32.9835548 96.9623955,35.9715566 C90.051704,40.8745526 83.0512633,45.6958556 75.7079031,49.7362893 C64.0146556,56.1700582 65.0806568,45.5084307 71.2955373,38.0544182 C75.1763271,33.4001678 82.640167,27.5871423 82.3351009,20.9453725 C81.9461876,12.4784505 74.6351859,12.9641256 69.7569789,16.7672222 C58.7782657,25.326227 47.9352957,34.0323196 36.7524589,42.3272996 C40.6719161,36.5144778 57.0823917,17.8343221 47.1240928,11.75279 C40.6088271,7.77286192 27.5117468,20.3158692 23.3128663,24.2118634 C15.5516939,31.4130559 7.79052143,38.6140447 0.0293490137,45.8150335 C-0.773713352,27.0978002 14.9767696,8.45655554 38.2775854,2.13870498 Z" id="Combined-Shape"></path>
                </g>
                <g id="mantralink" transform="translate(116.187000, 2.056000)" fill-rule="nonzero">
                    <path d="M12.561,58.144 L12.561,36.024 C12.561,32.9693333 13.2325,30.5993333 14.5755,28.914 C15.9185,27.2286667 17.8013333,26.386 20.224,26.386 C22.2253333,26.386 23.6868333,27.018 24.6085,28.282 C25.5301667,29.546 25.991,31.5473333 25.991,34.286 L25.991,34.286 L25.991,58.144 L37.92,58.144 L37.92,36.024 C37.92,32.9693333 38.5783333,30.5993333 39.895,28.914 C41.2116667,27.2286667 43.0813333,26.386 45.504,26.386 C47.558,26.386 49.0326667,27.0048333 49.928,28.2425 C50.8233333,29.4801667 51.271,31.4946667 51.271,34.286 L51.271,34.286 L51.271,58.144 L63.2,58.144 L63.2,33.891 C63.2,28.203 62.0808333,23.9765 59.8425,21.2115 C57.6041667,18.4465 54.194,17.064 49.612,17.064 C46.8206667,17.064 44.2531667,17.7355 41.9095,19.0785 C39.5658333,20.4215 37.7356667,22.2253333 36.419,24.49 C34.4703333,19.5393333 30.5203333,17.064 24.569,17.064 C21.725,17.064 19.2101667,17.6696667 17.0245,18.881 C14.8388333,20.0923333 13.1403333,21.8303333 11.929,24.095 L11.929,24.095 L11.218,18.091 L0,18.091 C0.421333333,21.4616667 0.632,25.28 0.632,29.546 L0.632,29.546 L0.632,58.144 L12.561,58.144 Z M88.322,58.776 C91.1133333,58.776 93.615,58.1966667 95.827,57.038 C98.039,55.8793333 99.7506667,54.273 100.962,52.219 L100.962,52.219 L100.962,58.144 L112.733,58.144 L112.733,18.091 L100.962,18.091 L100.962,23.779 C99.7506667,21.725 98.039,20.0923333 95.827,18.881 C93.615,17.6696667 91.1133333,17.064 88.322,17.064 C84.8986667,17.064 81.844,17.9461667 79.158,19.7105 C76.472,21.4748333 74.3785,23.9633333 72.8775,27.176 C71.3765,30.3886667 70.626,34.049 70.626,38.157 C70.626,42.265 71.3765,45.8858333 72.8775,49.0195 C74.3785,52.1531667 76.4588333,54.5626667 79.1185,56.248 C81.7781667,57.9333333 84.846,58.776 88.322,58.776 Z M91.798,49.691 C88.796,49.691 86.4918333,48.7035 84.8855,46.7285 C83.2791667,44.7535 82.476,41.8963333 82.476,38.157 C82.476,34.4176667 83.2923333,31.4946667 84.925,29.388 C86.5576667,27.2813333 88.8486667,26.228 91.798,26.228 C94.7473333,26.228 97.012,27.2418333 98.592,29.2695 C100.172,31.2971667 100.962,34.207 100.962,37.999 C100.962,41.791 100.172,44.6876667 98.592,46.689 C97.012,48.6903333 94.7473333,49.691 91.798,49.691 Z M134.3,58.144 L134.3,35.708 C134.3,32.864 135.09,30.5993333 136.67,28.914 C138.25,27.2286667 140.356667,26.386 142.99,26.386 C145.202,26.386 146.8215,27.0311667 147.8485,28.3215 C148.8755,29.6118333 149.389,31.6526667 149.389,34.444 L149.389,34.444 L149.389,58.144 L161.318,58.144 L161.318,33.891 C161.318,22.673 156.578,17.064 147.098,17.064 C144.201333,17.064 141.6075,17.696 139.3165,18.96 C137.0255,20.224 135.169,22.041 133.747,24.411 L133.747,24.411 L132.957,18.091 L121.739,18.091 C122.160333,21.4616667 122.371,25.28 122.371,29.546 L122.371,29.546 L122.371,58.144 L134.3,58.144 Z M189.126,58.776 C191.812,58.776 194.103,58.4073333 195.999,57.67 L195.999,57.67 L195.999,48.427 C194.524333,48.7956667 193.207667,48.98 192.049,48.98 C190.205667,48.98 188.704667,48.4665 187.546,47.4395 C186.387333,46.4125 185.808,44.793 185.808,42.581 L185.808,42.581 L185.808,27.018 L195.999,27.018 L195.999,18.091 L185.808,18.091 L185.808,4.819 L173.879,8.69 L173.879,18.091 L166.295,18.091 L166.295,27.018 L173.879,27.018 L173.879,42.818 C173.879,47.874 175.1825,51.7976667 177.7895,54.589 C180.3965,57.3803333 184.175333,58.776 189.126,58.776 Z M214.011,58.144 L214.011,37.209 C214.011,34.1543333 214.8405,31.7711667 216.4995,30.0595 C218.1585,28.3478333 220.568,27.492 223.728,27.492 C225.676667,27.492 227.625333,27.9396667 229.574,28.835 L229.574,28.835 L229.653,17.933 C228.494333,17.4063333 227.072333,17.143 225.387,17.143 C222.701,17.143 220.2915,17.8145 218.1585,19.1575 C216.0255,20.5005 214.458667,22.436 213.458,24.964 L213.458,24.964 L212.668,18.091 L201.45,18.091 C201.871333,21.4616667 202.082,25.28 202.082,29.546 L202.082,29.546 L202.082,58.144 L214.011,58.144 Z M250.193,58.776 C252.984333,58.776 255.486,58.1966667 257.698,57.038 C259.91,55.8793333 261.621667,54.273 262.833,52.219 L262.833,52.219 L262.833,58.144 L274.604,58.144 L274.604,18.091 L262.833,18.091 L262.833,23.779 C261.621667,21.725 259.91,20.0923333 257.698,18.881 C255.486,17.6696667 252.984333,17.064 250.193,17.064 C246.769667,17.064 243.715,17.9461667 241.029,19.7105 C238.343,21.4748333 236.2495,23.9633333 234.7485,27.176 C233.2475,30.3886667 232.497,34.049 232.497,38.157 C232.497,42.265 233.2475,45.8858333 234.7485,49.0195 C236.2495,52.1531667 238.329833,54.5626667 240.9895,56.248 C243.649167,57.9333333 246.717,58.776 250.193,58.776 Z M253.669,49.691 C250.667,49.691 248.362833,48.7035 246.7565,46.7285 C245.150167,44.7535 244.347,41.8963333 244.347,38.157 C244.347,34.4176667 245.163333,31.4946667 246.796,29.388 C248.428667,27.2813333 250.719667,26.228 253.669,26.228 C256.618333,26.228 258.883,27.2418333 260.463,29.2695 C262.043,31.2971667 262.833,34.207 262.833,37.999 C262.833,41.791 262.043,44.6876667 260.463,46.689 C258.883,48.6903333 256.618333,49.691 253.669,49.691 Z" id="mantra" fill="#0A0A0A"></path>
                    <path d="M290.72,58.144 L290.72,0 L285.98,0 L285.98,58.144 L290.72,58.144 Z M309.68,8.374 L309.68,2.212 L303.281,2.212 L303.281,8.374 L309.68,8.374 Z M308.732,58.144 L308.732,18.565 L303.992,18.565 L303.992,58.144 L308.732,58.144 Z M326.744,58.144 L326.744,35.234 C326.744,31.126 327.955333,27.8606667 330.378,25.438 C332.800667,23.0153333 335.987,21.804 339.937,21.804 C343.360333,21.804 345.875167,22.7256667 347.4815,24.569 C349.087833,26.4123333 349.891,29.309 349.891,33.259 L349.891,33.259 L349.891,58.144 L354.71,58.144 L354.71,32.943 C354.71,22.7256667 349.943667,17.617 340.411,17.617 C337.251,17.617 334.459667,18.3148333 332.037,19.7105 C329.614333,21.1061667 327.797333,23.147 326.586,25.833 L326.586,25.833 L325.954,18.565 L321.372,18.565 C321.793333,21.7776667 322.004,25.438 322.004,29.546 L322.004,29.546 L322.004,58.144 L326.744,58.144 Z M372.406,58.144 L372.406,38.868 L394.21,58.144 L400.767,58.144 L377.857,37.604 L398.555,18.565 L392.314,18.565 L372.406,36.972 L372.406,0 L367.666,0 L367.666,58.144 L372.406,58.144 Z" id="link" fill="#009CE7"></path>
                </g>
            </g>
        </g>
    </g>
</svg>